<?xml version="1.0" encoding="UTF-8"?>
<svg width="100" height="32" viewBox="0 0 100 32" fill="none" xmlns="http://www.w3.org/2000/svg">
  <path d="M35.1 13.6C35.4 11.9 37 10.7 38.8 10.7H46.5C47.3 10.7 48.1 10.8 48.8 11.1C50.5 11.7 51.7 13 51.9 14.6C52.2 16.7 51.1 18.7 49.2 19.7C48.5 20.1 47.7 20.3 46.9 20.3H39.2C38.4 20.3 37.7 20.8 37.5 21.5L36.2 25.9H31.9L35.1 13.6Z" fill="#003087"/>
  <path d="M51.9 14.6C51.7 13 50.5 11.7 48.8 11.1C48.1 10.8 47.3 10.7 46.5 10.7H38.8C37 10.7 35.4 11.9 35.1 13.6L31.9 25.9H36.2L37.5 21.5C37.7 20.8 38.4 20.3 39.2 20.3H46.9C47.7 20.3 48.5 20.1 49.2 19.7C51.1 18.7 52.2 16.7 51.9 14.6Z" fill="#003087"/>
  <path d="M39.2 20.3C38.4 20.3 37.7 20.8 37.5 21.5L36.2 25.9H31.9L35.1 13.6C35.4 11.9 37 10.7 38.8 10.7H46.5C47.3 10.7 48.1 10.8 48.8 11.1C50.5 11.7 51.7 13 51.9 14.6C52.2 16.7 51.1 18.7 49.2 19.7C48.5 20.1 47.7 20.3 46.9 20.3H39.2Z" fill="#009CDE"/>
</svg> 