<?xml version="1.0" encoding="UTF-8"?>
<svg width="100" height="32" viewBox="0 0 100 32" fill="none" xmlns="http://www.w3.org/2000/svg">
  <path d="M41.2 12.1H37L34.6 23.4H38.8L41.2 12.1Z" fill="#1434CB"/>
  <path d="M31.4 12.1L27.4 19.8L25.8 13.5C25.5 12.6 24.8 12.1 24 12.1H17L16.9 12.4C18.4 12.8 20 13.4 21.2 14L24.1 23.4H28.4L34.6 12.1H31.4Z" fill="#1434CB"/>
  <path d="M51.6 12.1H48C47.2 12.1 46.5 12.5 46.2 13.2L41.2 23.4H45.4L46.1 21.6H50.6L51 23.4H54.7L51.6 12.1ZM47.1 18.9L48.8 14.8L49.8 18.9H47.1Z" fill="#1434CB"/>
  <path d="M62.9 15.3C62.9 14.6 63.5 14 64.5 13.8C65.1 13.7 66.4 13.6 67.8 14.4L68.5 12.3C67.1 11.7 65.6 11.4 64.2 11.4C60.3 11.4 57.6 13.4 57.6 16.2C57.6 18.2 59.5 19.4 60.9 20.1C62.4 20.8 63 21.2 63 21.8C63 22.7 61.9 23.1 60.9 23.1C59.1 23.1 57.5 22.6 56.2 21.9L55.5 24.1C56.8 24.8 58.8 25.2 60.8 25.2C65 25.2 67.6 23.2 67.6 20.2C67.6 17.7 65 16.6 62.9 15.3Z" fill="#1434CB"/>
</svg> 